<?xml version="1.0" encoding="us-ascii" standalone="no"?><svg xmlns="http://www.w3.org/2000/svg" xmlns:xlink="http://www.w3.org/1999/xlink" contentStyleType="text/css" height="2260px" preserveAspectRatio="none" style="width:867px;height:2260px;background:#FFFFFF;" version="1.1" viewBox="0 0 867 2260" width="867px" zoomAndPan="magnify"><defs/><g><text fill="#000000" font-family="sans-serif" font-size="14" font-weight="bold" lengthAdjust="spacing" textLength="319" x="267" y="22.9951">SGA &#8212; Sistema de Gest&#227;o de Ambientes</text><text fill="#000000" font-family="sans-serif" font-size="14" font-weight="bold" lengthAdjust="spacing" textLength="211" x="321" y="39.292">Diagrama de Casos de Uso</text><!--cluster SGA - Sistema de Gest?o de Ambientes--><g id="cluster_SGA - Sistema de Gest&#227;o de Ambientes"><rect fill="none" height="2064" rx="2.5" ry="2.5" style="stroke:#181818;stroke-width:1.0;" width="378" x="156" y="190.5938"/><text fill="#000000" font-family="sans-serif" font-size="14" font-weight="bold" lengthAdjust="spacing" textLength="311" x="189.5" y="205.5889">SGA - Sistema de Gest&#227;o de Ambientes</text></g><!--cluster Autentica??o--><g id="cluster_Autentica&#231;&#227;o"><rect fill="none" height="103" rx="2.5" ry="2.5" style="stroke:#181818;stroke-width:1.0;" width="189" x="250.5" y="750.5938"/><text fill="#000000" font-family="sans-serif" font-size="14" font-weight="bold" lengthAdjust="spacing" textLength="103" x="293.5" y="765.5889">Autentica&#231;&#227;o</text></g><!--cluster Secretaria e Coordena??o--><g id="cluster_Secretaria e Coordena&#231;&#227;o"><rect fill="none" height="279" rx="2.5" ry="2.5" style="stroke:#181818;stroke-width:1.0;" width="253" x="218.5" y="233.5938"/><text fill="#000000" font-family="sans-serif" font-size="14" font-weight="bold" lengthAdjust="spacing" textLength="206" x="242" y="248.5889">Secretaria e Coordena&#231;&#227;o</text></g><!--cluster Coordena??o--><g id="cluster_Coordena&#231;&#227;o"><rect fill="none" height="190" rx="2.5" ry="2.5" style="stroke:#181818;stroke-width:1.0;" width="235" x="227.5" y="536.5938"/><text fill="#000000" font-family="sans-serif" font-size="14" font-weight="bold" lengthAdjust="spacing" textLength="105" x="292.5" y="551.5889">Coordena&#231;&#227;o</text></g><!--cluster Docente--><g id="cluster_Docente"><rect fill="none" height="460" rx="2.5" ry="2.5" style="stroke:#181818;stroke-width:1.0;" width="298" x="196" y="877.5938"/><text fill="#000000" font-family="sans-serif" font-size="14" font-weight="bold" lengthAdjust="spacing" textLength="66" x="312" y="892.5889">Docente</text></g><!--cluster Manuten??o--><g id="cluster_Manuten&#231;&#227;o"><rect fill="none" height="730" rx="2.5" ry="2.5" style="stroke:#181818;stroke-width:1.0;" width="300" x="195" y="1361.5938"/><text fill="#000000" font-family="sans-serif" font-size="14" font-weight="bold" lengthAdjust="spacing" textLength="96" x="297" y="1376.5889">Manuten&#231;&#227;o</text></g><!--cluster Solicita??o p?blica--><g id="cluster_Solicita&#231;&#227;o p&#250;blica"><rect fill="none" height="115" rx="2.5" ry="2.5" style="stroke:#181818;stroke-width:1.0;" width="330" x="180" y="2115.5938"/><text fill="#000000" font-family="sans-serif" font-size="14" font-weight="bold" lengthAdjust="spacing" textLength="145" x="272.5" y="2130.5889">Solicita&#231;&#227;o p&#250;blica</text></g><g id="elem_UC01"><ellipse cx="345.2495" cy="811.6681" fill="#F1F1F1" rx="78.7495" ry="26.0744" style="stroke:#181818;stroke-width:0.5;"/><text fill="#000000" font-family="sans-serif" font-size="14" lengthAdjust="spacing" textLength="95" x="295.1528" y="807.1574">Realizar Login</text><text fill="#000000" font-family="sans-serif" font-size="14" lengthAdjust="spacing" textLength="48" x="318.6528" y="823.4542">(UC01)</text></g><g id="elem_UC02"><ellipse cx="345.0541" cy="383.7597" fill="#F1F1F1" rx="92.5541" ry="26.1659" style="stroke:#181818;stroke-width:0.5;"/><text fill="#000000" font-family="sans-serif" font-size="14" lengthAdjust="spacing" textLength="114" x="285.0541" y="379.3588">Cadastrar Turma</text><text fill="#000000" font-family="sans-serif" font-size="14" lengthAdjust="spacing" textLength="99" x="292.5541" y="395.6556">(UC02 / UC07)</text></g><g id="elem_UC03"><ellipse cx="345.1817" cy="470.8183" fill="#F1F1F1" rx="104.1817" ry="26.2246" style="stroke:#181818;stroke-width:0.5;"/><text fill="#000000" font-family="sans-serif" font-size="14" lengthAdjust="spacing" textLength="130" x="277.1817" y="466.4174">Cadastrar Docente</text><text fill="#000000" font-family="sans-serif" font-size="14" lengthAdjust="spacing" textLength="99" x="292.6817" y="482.7143">(UC03 / UC08)</text></g><g id="elem_UC04"><ellipse cx="345.2225" cy="295.3459" fill="#F1F1F1" rx="110.7225" ry="26.2522" style="stroke:#181818;stroke-width:0.5;"/><text fill="#000000" font-family="sans-serif" font-size="14" lengthAdjust="spacing" textLength="139" x="272.7225" y="290.9451">Consultar Relat&#243;rios</text><text fill="#000000" font-family="sans-serif" font-size="14" lengthAdjust="spacing" textLength="99" x="292.7225" y="307.2419">(UC04 / UC09)</text></g><g id="elem_UC05"><ellipse cx="344.7747" cy="597.8049" fill="#F1F1F1" rx="101.2747" ry="26.2112" style="stroke:#181818;stroke-width:0.5;"/><text fill="#000000" font-family="sans-serif" font-size="14" lengthAdjust="spacing" textLength="126" x="278.7747" y="593.404">Realizar Atribui&#231;&#227;o</text><text fill="#000000" font-family="sans-serif" font-size="14" lengthAdjust="spacing" textLength="48" x="317.7747" y="609.7009">(UC05)</text></g><g id="elem_UC06"><ellipse cx="345.1007" cy="684.7513" fill="#F1F1F1" rx="91.1007" ry="26.1575" style="stroke:#181818;stroke-width:0.5;"/><text fill="#000000" font-family="sans-serif" font-size="14" lengthAdjust="spacing" textLength="112" x="286.1007" y="680.3504">Alocar Ambiente</text><text fill="#000000" font-family="sans-serif" font-size="14" lengthAdjust="spacing" textLength="48" x="318.1007" y="696.6473">(UC06)</text></g><g id="elem_UC10"><ellipse cx="345.1352" cy="938.8248" fill="#F1F1F1" rx="105.6352" ry="26.231" style="stroke:#181818;stroke-width:0.5;"/><text fill="#000000" font-family="sans-serif" font-size="14" lengthAdjust="spacing" textLength="132" x="276.1352" y="934.4239">Consultar Aloca&#231;&#227;o</text><text fill="#000000" font-family="sans-serif" font-size="14" lengthAdjust="spacing" textLength="48" x="318.1352" y="950.7208">(UC10)</text></g><g id="elem_UC11"><ellipse cx="345.0012" cy="1028.594" fill="#F1F1F1" rx="133.0012" ry="29.0002" style="stroke:#181818;stroke-width:0.5;"/><text fill="#000000" font-family="sans-serif" font-size="14" lengthAdjust="spacing" textLength="189" x="247.5012" y="1024.1931">Consultar Salas Dispon&#237;veis</text><text fill="#000000" font-family="sans-serif" font-size="14" lengthAdjust="spacing" textLength="48" x="318.0012" y="1040.49">(UC11)</text></g><g id="elem_UC12"><ellipse cx="344.9316" cy="1119.3801" fill="#F1F1F1" rx="119.4316" ry="26.2863" style="stroke:#181818;stroke-width:0.5;"/><text fill="#000000" font-family="sans-serif" font-size="14" lengthAdjust="spacing" textLength="151" x="266.4316" y="1114.9792">Filtrar Salas e Hor&#225;rios</text><text fill="#000000" font-family="sans-serif" font-size="14" lengthAdjust="spacing" textLength="48" x="317.9316" y="1131.2761">(UC12)</text></g><g id="elem_UC13"><ellipse cx="344.8045" cy="1295.6591" fill="#F1F1F1" rx="77.3045" ry="26.0654" style="stroke:#181818;stroke-width:0.5;"/><text fill="#000000" font-family="sans-serif" font-size="14" lengthAdjust="spacing" textLength="93" x="296.2229" y="1291.0035">Reservar Sala</text><text fill="#000000" font-family="sans-serif" font-size="14" lengthAdjust="spacing" textLength="48" x="318.7229" y="1307.3004">(UC13)</text></g><g id="elem_UC14"><ellipse cx="345.2225" cy="1207.3459" fill="#F1F1F1" rx="110.7225" ry="26.2522" style="stroke:#181818;stroke-width:0.5;"/><text fill="#000000" font-family="sans-serif" font-size="14" lengthAdjust="spacing" textLength="139" x="272.7225" y="1202.9451">Consultar Relat&#243;rios</text><text fill="#000000" font-family="sans-serif" font-size="14" lengthAdjust="spacing" textLength="48" x="318.2225" y="1219.2419">(UC14)</text></g><g id="elem_UC15"><ellipse cx="345.217" cy="1787.3755" fill="#F1F1F1" rx="118.717" ry="26.2818" style="stroke:#181818;stroke-width:0.5;"/><text fill="#000000" font-family="sans-serif" font-size="14" lengthAdjust="spacing" textLength="150" x="267.217" y="1782.9747">Visualizar Solicita&#231;&#245;es</text><text fill="#000000" font-family="sans-serif" font-size="14" lengthAdjust="spacing" textLength="48" x="318.217" y="1799.2715">(UC15)</text></g><g id="elem_UC16"><ellipse cx="344.9143" cy="1875.7833" fill="#F1F1F1" rx="96.9143" ry="26.1896" style="stroke:#181818;stroke-width:0.5;"/><text fill="#000000" font-family="sans-serif" font-size="14" lengthAdjust="spacing" textLength="120" x="281.9143" y="1871.3824">Avaliar Solicita&#231;&#227;o</text><text fill="#000000" font-family="sans-serif" font-size="14" lengthAdjust="spacing" textLength="48" x="317.9143" y="1887.6793">(UC16)</text></g><g id="elem_UC17"><ellipse cx="344.8212" cy="1962.7979" fill="#F1F1F1" rx="99.8212" ry="26.2042" style="stroke:#181818;stroke-width:0.5;"/><text fill="#000000" font-family="sans-serif" font-size="14" lengthAdjust="spacing" textLength="124" x="279.8212" y="1958.397">Aceitar Solicita&#231;&#227;o</text><text fill="#000000" font-family="sans-serif" font-size="14" lengthAdjust="spacing" textLength="48" x="317.8212" y="1974.6939">(UC17)</text></g><g id="elem_UC18"><ellipse cx="345.0887" cy="2049.831" fill="#F1F1F1" rx="107.0887" ry="26.2373" style="stroke:#181818;stroke-width:0.5;"/><text fill="#000000" font-family="sans-serif" font-size="14" lengthAdjust="spacing" textLength="134" x="275.0887" y="2045.4301">Recusar Solicita&#231;&#227;o</text><text fill="#000000" font-family="sans-serif" font-size="14" lengthAdjust="spacing" textLength="48" x="318.0887" y="2061.727">(UC18)</text></g><g id="elem_UC19"><ellipse cx="344.7614" cy="1424.346" fill="#F1F1F1" rx="124.2614" ry="27.2523" style="stroke:#181818;stroke-width:0.5;"/><text fill="#000000" font-family="sans-serif" font-size="14" lengthAdjust="spacing" textLength="165" x="259.2614" y="1419.9451">Gerar Ordem de Servi&#231;o</text><text fill="#000000" font-family="sans-serif" font-size="14" lengthAdjust="spacing" textLength="48" x="317.7614" y="1436.242">(UC19)</text></g><g id="elem_UC20"><ellipse cx="344.7529" cy="1516.7443" fill="#F1F1F1" rx="133.7529" ry="29.1506" style="stroke:#181818;stroke-width:0.5;"/><text fill="#000000" font-family="sans-serif" font-size="14" lengthAdjust="spacing" textLength="191" x="246.2529" y="1512.3434">Visualizar Ordem de Servi&#231;o</text><text fill="#000000" font-family="sans-serif" font-size="14" lengthAdjust="spacing" textLength="48" x="317.7529" y="1528.6403">(UC20)</text></g><g id="elem_UC21"><ellipse cx="344.7689" cy="1606.8401" fill="#F1F1F1" rx="109.2689" ry="26.2463" style="stroke:#181818;stroke-width:0.5;"/><text fill="#000000" font-family="sans-serif" font-size="14" lengthAdjust="spacing" textLength="137" x="273.2689" y="1602.4392">Alterar Status da OS</text><text fill="#000000" font-family="sans-serif" font-size="14" lengthAdjust="spacing" textLength="48" x="317.7689" y="1618.7361">(UC21)</text></g><g id="elem_UC22"><ellipse cx="345.13" cy="1696.8197" fill="#F1F1F1" rx="134.13" ry="29.226" style="stroke:#181818;stroke-width:0.5;"/><text fill="#000000" font-family="sans-serif" font-size="14" lengthAdjust="spacing" textLength="192" x="246.13" y="1692.4189">Consultar Indicadores e SLA</text><text fill="#000000" font-family="sans-serif" font-size="14" lengthAdjust="spacing" textLength="48" x="318.13" y="1708.7157">(UC22)</text></g><g id="elem_UC23"><ellipse cx="345.0071" cy="2182.7952" fill="#F1F1F1" rx="149.0071" ry="32.2014" style="stroke:#181818;stroke-width:0.5;"/><text fill="#000000" font-family="sans-serif" font-size="14" lengthAdjust="spacing" textLength="230" x="227.0071" y="2178.3943">Enviar Solicita&#231;&#227;o de Manuten&#231;&#227;o</text><text fill="#000000" font-family="sans-serif" font-size="14" lengthAdjust="spacing" textLength="48" x="318.0071" y="2194.6912">(UC23)</text></g><!--entity secretaria--><g id="elem_secretaria"><ellipse cx="52.5" cy="405.5938" fill="#F1F1F1" rx="16" ry="16" style="stroke:#181818;stroke-width:0.5;"/><path d="M52.5,425.5938 C56.5,425.5938 59.5,425.5938 63.5,421.5938 C71.5,421.5938 79.5,429.5938 79.5,437.5938 L79.5,441.5938 C79.5,445.5938 75.5,449.5938 71.5,449.5938 L33.5,449.5938 C29.5,449.5938 25.5,445.5938 25.5,441.5938 L25.5,437.5938 C25.5,429.5938 33.5,421.5938 41.5,421.5938 C45.5,425.5938 48.5,425.5938 52.5,425.5938 " fill="#F1F1F1" style="stroke:#181818;stroke-width:0.5;"/><text fill="#000000" font-family="sans-serif" font-size="14" lengthAdjust="spacing" textLength="69" x="18" y="463.0889">Secretaria</text></g><!--entity coordenacao--><g id="elem_coordenacao"><ellipse cx="52.5" cy="546.5938" fill="#F1F1F1" rx="16" ry="16" style="stroke:#181818;stroke-width:0.5;"/><path d="M52.5,566.5938 C56.5,566.5938 59.5,566.5938 63.5,562.5938 C71.5,562.5938 79.5,570.5938 79.5,578.5938 L79.5,582.5938 C79.5,586.5938 75.5,590.5938 71.5,590.5938 L33.5,590.5938 C29.5,590.5938 25.5,586.5938 25.5,582.5938 L25.5,578.5938 C25.5,570.5938 33.5,562.5938 41.5,562.5938 C45.5,566.5938 48.5,566.5938 52.5,566.5938 " fill="#F1F1F1" style="stroke:#181818;stroke-width:0.5;"/><text fill="#000000" font-family="sans-serif" font-size="14" lengthAdjust="spacing" textLength="93" x="6" y="604.0889">Coordena&#231;&#227;o</text></g><!--entity docente--><g id="elem_docente"><ellipse cx="52.5" cy="1052.5938" fill="#F1F1F1" rx="16" ry="16" style="stroke:#181818;stroke-width:0.5;"/><path d="M52.5,1072.5938 C56.5,1072.5938 59.5,1072.5938 63.5,1068.5938 C71.5,1068.5938 79.5,1076.5938 79.5,1084.5938 L79.5,1088.5938 C79.5,1092.5938 75.5,1096.5938 71.5,1096.5938 L33.5,1096.5938 C29.5,1096.5938 25.5,1092.5938 25.5,1088.5938 L25.5,1084.5938 C25.5,1076.5938 33.5,1068.5938 41.5,1068.5938 C45.5,1072.5938 48.5,1072.5938 52.5,1072.5938 " fill="#F1F1F1" style="stroke:#181818;stroke-width:0.5;"/><text fill="#000000" font-family="sans-serif" font-size="14" lengthAdjust="spacing" textLength="60" x="22.5" y="1110.0889">Docente</text></g><!--entity manutencao--><g id="elem_manutencao"><ellipse cx="52.5" cy="1674.5938" fill="#F1F1F1" rx="16" ry="16" style="stroke:#181818;stroke-width:0.5;"/><path d="M52.5,1694.5938 C56.5,1694.5938 59.5,1694.5938 63.5,1690.5938 C71.5,1690.5938 79.5,1698.5938 79.5,1706.5938 L79.5,1710.5938 C79.5,1714.5938 75.5,1718.5938 71.5,1718.5938 L33.5,1718.5938 C29.5,1718.5938 25.5,1714.5938 25.5,1710.5938 L25.5,1706.5938 C25.5,1698.5938 33.5,1690.5938 41.5,1690.5938 C45.5,1694.5938 48.5,1694.5938 52.5,1694.5938 " fill="#F1F1F1" style="stroke:#181818;stroke-width:0.5;"/><text fill="#000000" font-family="sans-serif" font-size="14" lengthAdjust="spacing" textLength="86" x="9.5" y="1732.0889">Manuten&#231;&#227;o</text></g><!--entity publico--><g id="elem_publico"><ellipse cx="52.5" cy="2160.5938" fill="#F1F1F1" rx="16" ry="16" style="stroke:#181818;stroke-width:0.5;"/><path d="M52.5,2180.5938 C56.5,2180.5938 59.5,2180.5938 63.5,2176.5938 C71.5,2176.5938 79.5,2184.5938 79.5,2192.5938 L79.5,2196.5938 C79.5,2200.5938 75.5,2204.5938 71.5,2204.5938 L33.5,2204.5938 C29.5,2204.5938 25.5,2200.5938 25.5,2196.5938 L25.5,2192.5938 C25.5,2184.5938 33.5,2176.5938 41.5,2176.5938 C45.5,2180.5938 48.5,2180.5938 52.5,2180.5938 " fill="#F1F1F1" style="stroke:#181818;stroke-width:0.5;"/><text fill="#000000" font-family="sans-serif" font-size="14" lengthAdjust="spacing" textLength="50" x="27.5" y="2218.0889">P&#250;blico</text></g><g id="elem_GMN60"><path d="M159,134.5938 L159,174.8594 L531,174.8594 L531,144.5938 L521,134.5938 L159,134.5938 " fill="#FEFFDD" style="stroke:#181818;stroke-width:0.5;"/><path d="M521,134.5938 L521,144.5938 L531,144.5938 L521,134.5938 " fill="#FEFFDD" style="stroke:#181818;stroke-width:1.0;"/><text fill="#000000" font-family="sans-serif" font-size="13" lengthAdjust="spacing" textLength="303" x="165" y="151.6606">O P&#250;blico envia a solicita&#231;&#227;o sem autentica&#231;&#227;o.</text><text fill="#000000" font-family="sans-serif" font-size="13" lengthAdjust="spacing" textLength="351" x="165" y="166.7935">A solicita&#231;&#227;o &#233; recebida pela Manuten&#231;&#227;o para an&#225;lise.</text></g><g id="elem_GMN63"><path d="M191.5,59.5938 L191.5,99.8594 L498.5,99.8594 L498.5,69.5938 L488.5,59.5938 L191.5,59.5938 " fill="#FEFFDD" style="stroke:#181818;stroke-width:0.5;"/><path d="M488.5,59.5938 L488.5,69.5938 L498.5,69.5938 L488.5,59.5938 " fill="#FEFFDD" style="stroke:#181818;stroke-width:1.0;"/><text fill="#000000" font-family="sans-serif" font-size="13" lengthAdjust="spacing" textLength="286" x="197.5" y="76.6606">A disponibilidade da sala deve ser revalidada</text><text fill="#000000" font-family="sans-serif" font-size="13" lengthAdjust="spacing" textLength="262" x="197.5" y="91.7935">no momento da confirma&#231;&#227;o da reserva.</text></g><g id="elem_GMN66"><path d="M599.5,1942.5938 L599.5,1958.5938 L445.45,1962.5938 L599.5,1966.5938 L599.5,1982.8594 A0,0 0 0 0 599.5,1982.8594 L851.5,1982.8594 A0,0 0 0 0 851.5,1982.8594 L851.5,1952.5938 L841.5,1942.5938 L599.5,1942.5938 A0,0 0 0 0 599.5,1942.5938 " fill="#FEFFDD" style="stroke:#181818;stroke-width:0.5;"/><path d="M841.5,1942.5938 L841.5,1952.5938 L851.5,1952.5938 L841.5,1942.5938 " fill="#FEFFDD" style="stroke:#181818;stroke-width:0.5;"/><text fill="#000000" font-family="sans-serif" font-size="13" lengthAdjust="spacing" textLength="207" x="605.5" y="1959.6606">Solicita&#231;&#227;o aprovada pode gerar</text><text fill="#000000" font-family="sans-serif" font-size="13" lengthAdjust="spacing" textLength="231" x="605.5" y="1974.7935">uma ocorr&#234;ncia / Ordem de Servi&#231;o.</text></g><g id="elem_GMN69"><path d="M591,2029.5938 L591,2045.5938 L452.19,2049.5938 L591,2053.5938 L591,2069.8594 A0,0 0 0 0 591,2069.8594 L860,2069.8594 A0,0 0 0 0 860,2069.8594 L860,2039.5938 L850,2029.5938 L591,2029.5938 A0,0 0 0 0 591,2029.5938 " fill="#FEFFDD" style="stroke:#181818;stroke-width:0.5;"/><path d="M850,2029.5938 L850,2039.5938 L860,2039.5938 L850,2029.5938 " fill="#FEFFDD" style="stroke:#181818;stroke-width:0.5;"/><text fill="#000000" font-family="sans-serif" font-size="13" lengthAdjust="spacing" textLength="202" x="597" y="2046.6606">Registrar o resultado da an&#225;lise</text><text fill="#000000" font-family="sans-serif" font-size="13" lengthAdjust="spacing" textLength="248" x="597" y="2061.7935">quando a solicita&#231;&#227;o n&#227;o for aprovada.</text></g><!--link secretaria to UC01--><g id="link_secretaria_UC01"><path d="M77.06,466.3538 C84.9,480.5238 93.13,496.9137 99,512.5938 C133.22,603.9738 85.64,651.5538 148,726.5938 C180.24,765.3938 227.7512,785.376 270.6412,797.066 " fill="none" id="secretaria-to-UC01" style="stroke:#181818;stroke-width:1.0;"/><polygon fill="#181818" points="276.43,798.6438,268.7986,792.4178,271.606,797.3289,266.6949,800.1363,276.43,798.6438" style="stroke:#181818;stroke-width:1.0;"/></g><!--link coordenacao to UC01--><g id="link_coordenacao_UC01"><path d="M68.49,607.3638 C83.81,642.5538 110.65,693.8038 148,726.5938 C186.6,760.4838 235.0888,780.7761 276.7088,793.9261 " fill="none" id="coordenacao-to-UC01" style="stroke:#181818;stroke-width:1.0;"/><polygon fill="#181818" points="282.43,795.7338,275.0533,789.2081,277.6623,794.2274,272.6431,796.8364,282.43,795.7338" style="stroke:#181818;stroke-width:1.0;"/></g><!--link docente to UC01--><g id="link_docente_UC01"><path d="M65.53,1035.7838 C79.59,996.1238 106.37,935.0638 148,896.5938 C185.59,861.8538 233.8763,841.6414 275.6863,828.7514 " fill="none" id="docente-to-UC01" style="stroke:#181818;stroke-width:1.0;"/><polygon fill="#181818" points="281.42,826.9838,271.641,825.8128,276.6419,828.4568,273.9979,833.4578,281.42,826.9838" style="stroke:#181818;stroke-width:1.0;"/></g><!--link manutencao to UC01--><g id="link_manutencao_UC01"><path d="M55.81,1658.0237 C65.17,1506.6338 102.01,958.4137 148,896.5938 C178.11,856.1238 225.7306,836.1642 269.2106,824.9342 " fill="none" id="manutencao-to-UC01" style="stroke:#181818;stroke-width:1.0;"/><polygon fill="#181818" points="275.02,823.4337,265.3057,821.8115,270.1789,824.6841,267.3063,829.5573,275.02,823.4337" style="stroke:#181818;stroke-width:1.0;"/></g><!--link secretaria to UC02--><g id="link_secretaria_UC02"><path d="M87.11,422.5038 C129.9,416.0238 199.3078,405.5129 257.3678,396.7129 " fill="none" id="secretaria-to-UC02" style="stroke:#181818;stroke-width:1.0;"/><polygon fill="#181818" points="263.3,395.8138,253.8022,393.2076,258.3565,396.563,255.0011,401.1173,263.3,395.8138" style="stroke:#181818;stroke-width:1.0;"/></g><!--link secretaria to UC03--><g id="link_secretaria_UC03"><path d="M87.11,432.5638 C127.88,438.6038 192.2746,448.1355 249.0446,456.5355 " fill="none" id="secretaria-to-UC03" style="stroke:#181818;stroke-width:1.0;"/><polygon fill="#181818" points="254.98,457.4137,246.6624,452.1395,250.0339,456.6819,245.4914,460.0533,254.98,457.4137" style="stroke:#181818;stroke-width:1.0;"/></g><!--link secretaria to UC04--><g id="link_secretaria_UC04"><path d="M86.31,388.7538 C103.07,371.2638 124.8,351.8338 148,339.5938 C177.85,323.8538 207.248,314.9078 239.588,308.3978 " fill="none" id="secretaria-to-UC04" style="stroke:#181818;stroke-width:1.0;"/><polygon fill="#181818" points="245.47,307.2137,235.8576,305.0685,240.5683,308.2005,237.4363,312.9112,245.47,307.2137" style="stroke:#181818;stroke-width:1.0;"/></g><!--link coordenacao to UC02--><g id="link_coordenacao_UC02"><path d="M74.75,530.0038 C96.02,492.7438 128.32,440.0538 148,426.5938 C179.06,405.3538 212.8627,395.3152 248.4327,389.7252 " fill="none" id="coordenacao-to-UC02" style="stroke:#181818;stroke-width:1.0;"/><polygon fill="#181818" points="254.36,388.7938,244.8481,386.2395,249.4206,389.57,246.0901,394.1425,254.36,388.7938" style="stroke:#181818;stroke-width:1.0;"/></g><!--link coordenacao to UC03--><g id="link_coordenacao_UC03"><path d="M99.21,553.1737 C148.58,536.5138 221.8345,511.8007 276.6745,493.3107 " fill="none" id="coordenacao-to-UC03" style="stroke:#181818;stroke-width:1.0;"/><polygon fill="#181818" points="282.36,491.3937,272.5537,490.4788,277.6221,492.9912,275.1097,498.0595,282.36,491.3937" style="stroke:#181818;stroke-width:1.0;"/></g><!--link coordenacao to UC04--><g id="link_coordenacao_UC04"><path d="M75.93,529.9038 C83.76,515.6038 92.27,499.1038 99,483.5938 C125.93,421.5838 97.71,384.7638 148,339.5938 C172.06,317.9838 198.532,307.4078 230.012,301.2378 " fill="none" id="coordenacao-to-UC04" style="stroke:#181818;stroke-width:1.0;"/><polygon fill="#181818" points="235.9,300.0838,226.2987,297.8895,230.9934,301.0454,227.8374,305.7401,235.9,300.0838" style="stroke:#181818;stroke-width:1.0;"/></g><!--link coordenacao to UC05--><g id="link_coordenacao_UC05"><path d="M99.21,573.1538 C139.56,577.1837 193.6696,582.5885 244.2196,587.6285 " fill="none" id="coordenacao-to-UC05" style="stroke:#181818;stroke-width:1.0;"/><polygon fill="#181818" points="250.19,588.2238,241.6312,583.3506,245.2147,587.7277,240.8376,591.3111,250.19,588.2238" style="stroke:#181818;stroke-width:1.0;"/></g><!--link coordenacao to UC06--><g id="link_coordenacao_UC06"><path d="M96.12,607.2638 C111.53,619.5038 129.68,632.0538 148,640.5938 C183.41,657.0838 219.4476,666.496 255.4276,673.066 " fill="none" id="coordenacao-to-UC06" style="stroke:#181818;stroke-width:1.0;"/><polygon fill="#181818" points="261.33,674.1438,253.1949,668.5921,256.4113,673.2456,251.7579,676.462,261.33,674.1438" style="stroke:#181818;stroke-width:1.0;"/></g><!--link docente to UC10--><g id="link_docente_UC10"><path d="M82.54,1037.2338 C99.58,1017.8038 122.7,995.3038 148,981.5938 C178.32,965.1637 208.6056,956.1244 241.5856,949.8544 " fill="none" id="docente-to-UC10" style="stroke:#181818;stroke-width:1.0;"/><polygon fill="#181818" points="247.48,948.7338,237.8913,946.4851,242.568,949.6676,239.3854,954.3443,247.48,948.7338" style="stroke:#181818;stroke-width:1.0;"/></g><!--link docente to UC11--><g id="link_docente_UC11"><path d="M82.68,1069.9738 C118.65,1064.2738 175.8738,1055.2119 231.0838,1046.4719 " fill="none" id="docente-to-UC11" style="stroke:#181818;stroke-width:1.0;"/><polygon fill="#181818" points="237.01,1045.5338,227.4953,1042.9902,232.0715,1046.3155,228.7461,1050.8918,237.01,1045.5338" style="stroke:#181818;stroke-width:1.0;"/></g><!--link docente to UC12--><g id="link_docente_UC12"><path d="M82.68,1079.1138 C120.74,1085.0138 183.2908,1094.695 240.6008,1103.575 " fill="none" id="docente-to-UC12" style="stroke:#181818;stroke-width:1.0;"/><polygon fill="#181818" points="246.53,1104.4938,238.2486,1099.1628,241.589,1103.7282,237.0237,1107.0685,246.53,1104.4938" style="stroke:#181818;stroke-width:1.0;"/></g><!--link docente to UC13--><g id="link_docente_UC13"><path d="M63.73,1113.3338 C76.54,1154.0838 102.54,1216.9938 148,1251.5938 C181.99,1277.4738 222.3716,1287.948 261.4616,1292.578 " fill="none" id="docente-to-UC13" style="stroke:#181818;stroke-width:1.0;"/><polygon fill="#181818" points="267.42,1293.2838,258.953,1288.2529,262.4547,1292.6956,258.012,1296.1974,267.42,1293.2838" style="stroke:#181818;stroke-width:1.0;"/></g><!--link docente to UC14--><g id="link_docente_UC14"><path d="M82.87,1110.2838 C100.01,1128.8538 123.12,1150.3838 148,1163.5938 C177.8,1179.4138 207.1876,1188.3818 239.5376,1194.8818 " fill="none" id="docente-to-UC14" style="stroke:#181818;stroke-width:1.0;"/><polygon fill="#181818" points="245.42,1196.0638,237.3843,1190.3692,240.518,1195.0788,235.8084,1198.2125,245.42,1196.0638" style="stroke:#181818;stroke-width:1.0;"/></g><!--link manutencao to UC15--><g id="link_manutencao_UC15"><path d="M95.9,1719.7838 C111.88,1727.8338 130.45,1736.3938 148,1742.5938 C181.25,1754.3338 212.9052,1762.5473 246.1552,1769.7273 " fill="none" id="manutencao-to-UC15" style="stroke:#181818;stroke-width:1.0;"/><polygon fill="#181818" points="252.02,1770.9938,244.0671,1765.1842,247.1327,1769.9384,242.3785,1773.004,252.02,1770.9938" style="stroke:#181818;stroke-width:1.0;"/></g><!--link manutencao to UC16--><g id="link_manutencao_UC16"><path d="M70.67,1735.1938 C86.39,1766.0238 112.59,1807.8638 148,1831.5938 C178.27,1851.8838 210.5775,1861.9228 245.2075,1867.9028 " fill="none" id="manutencao-to-UC16" style="stroke:#181818;stroke-width:1.0;"/><polygon fill="#181818" points="251.12,1868.9238,242.9319,1863.4506,246.1929,1868.0729,241.5706,1871.3339,251.12,1868.9238" style="stroke:#181818;stroke-width:1.0;"/></g><!--link manutencao to UC17--><g id="link_manutencao_UC17"><path d="M58.98,1735.1138 C68.2,1785.1638 91.68,1871.6738 148,1918.5938 C175.26,1941.3038 205.9033,1951.9175 240.0533,1957.6675 " fill="none" id="manutencao-to-UC17" style="stroke:#181818;stroke-width:1.0;"/><polygon fill="#181818" points="245.97,1958.6638,237.7591,1953.2249,241.0394,1957.8336,236.4308,1961.1139,245.97,1958.6638" style="stroke:#181818;stroke-width:1.0;"/></g><!--link manutencao to UC18--><g id="link_manutencao_UC18"><path d="M53.59,1735.2438 C55.94,1800.8638 70.65,1933.9038 148,2005.5938 C172.56,2028.3538 200.3582,2039.1425 232.8882,2045.1025 " fill="none" id="manutencao-to-UC18" style="stroke:#181818;stroke-width:1.0;"/><polygon fill="#181818" points="238.79,2046.1838,230.6582,2040.6273,233.8719,2045.2827,229.2165,2048.4963,238.79,2046.1838" style="stroke:#181818;stroke-width:1.0;"/></g><!--link manutencao to UC19--><g id="link_manutencao_UC19"><path d="M58.67,1657.7038 C67.58,1606.6638 90.75,1517.9138 148,1469.5938 C170.01,1451.0138 192.3565,1441.1476 220.4465,1434.3876 " fill="none" id="manutencao-to-UC19" style="stroke:#181818;stroke-width:1.0;"/><polygon fill="#181818" points="226.28,1432.9837,216.5939,1431.2006,221.4188,1434.1536,218.4657,1438.9785,226.28,1432.9837" style="stroke:#181818;stroke-width:1.0;"/></g><!--link manutencao to UC20--><g id="link_manutencao_UC20"><path d="M70.96,1658.0638 C86.77,1627.5438 112.96,1586.2337 148,1562.5938 C171.03,1547.0538 192.8423,1538.1916 219.9923,1531.3416 " fill="none" id="manutencao-to-UC20" style="stroke:#181818;stroke-width:1.0;"/><polygon fill="#181818" points="225.81,1529.8738,216.1049,1528.197,220.9619,1531.0969,218.062,1535.9539,225.81,1529.8738" style="stroke:#181818;stroke-width:1.0;"/></g><!--link manutencao to UC21--><g id="link_manutencao_UC21"><path d="M95.81,1672.7737 C111.79,1664.5237 130.37,1655.8038 148,1649.5938 C182.01,1637.6138 214.6695,1629.4851 248.5295,1622.6251 " fill="none" id="manutencao-to-UC21" style="stroke:#181818;stroke-width:1.0;"/><polygon fill="#181818" points="254.41,1621.4338,244.795,1619.3005,249.5096,1622.4266,246.3835,1627.1412,254.41,1621.4338" style="stroke:#181818;stroke-width:1.0;"/></g><!--link manutencao to UC22--><g id="link_manutencao_UC22"><path d="M95.74,1696.5938 C126.27,1696.5938 163.31,1696.5938 204.99,1696.5938 " fill="none" id="manutencao-to-UC22" style="stroke:#181818;stroke-width:1.0;"/><polygon fill="#181818" points="210.99,1696.5938,201.99,1692.5938,205.99,1696.5938,201.99,1700.5938,210.99,1696.5938" style="stroke:#181818;stroke-width:1.0;"/></g><!--link publico to UC23--><g id="link_publico_UC23"><path d="M80.05,2182.5938 C107.08,2182.5938 145.24,2182.5938 189.77,2182.5938 " fill="none" id="publico-to-UC23" style="stroke:#181818;stroke-width:1.0;"/><polygon fill="#181818" points="195.77,2182.5938,186.77,2178.5938,190.77,2182.5938,186.77,2186.5938,195.77,2182.5938" style="stroke:#181818;stroke-width:1.0;"/></g><!--link UC23 to GMN60--><g id="link_UC23_GMN60"><path d="M238.53,2160.1638 C193.43,2144.4538 146.13,2118.0738 123.5,2074.0938 C100.57,2029.5338 100.57,314.6537 123.5,270.0938 C149.25,220.0637 205.8,191.0738 255.31,174.6537 " fill="none" id="UC23-GMN60" style="stroke:#181818;stroke-width:1.0;stroke-dasharray:7.0,7.0;"/></g><!--link UC13 to GMN63--><g id="link_UC13_GMN63"><path d="M268.33,1299.8638 C215.21,1297.9938 149.52,1284.6638 123.5,1234.0938 C95.54,1179.7538 95.54,188.4338 123.5,134.0938 C137.36,107.1537 162.72,91.4538 191.46,82.6737 " fill="none" id="UC13-GMN63" style="stroke:#181818;stroke-width:1.0;stroke-dasharray:7.0,7.0;"/></g><!--SRC=[ZLRDRjGm4BxdAKQz08V-9BlTjXUaLGi52LJKK4wzp2RUnI9hBxQp22ea7e8Ng3WWa3WXBbpp9Zm9upXnDZzRk2NZ-MR6tum_st2JCOZFf_3dqsU8kJPiYP0oE6VQ55-a_PmkPvm9m_IrEEEuKEWyJb5BRJ-kj0o2ZCqD60cABruRIBbYYU5I1FeD5oia3AmmUOCB5fltbD4kerXaRCD1lyPKlkDY0NFCzEOA9aOg1yHtJCib2uBI1ZinInGpg3Zk06hG_hTsE9LIfKnWyPMsK_eabIL1MJkToSJki5nEtNUzz1n5RfXeu4jds42_A7xFCfwuvLLUVWU1to8LIVpk_elT7RW90gXfWfsfpM9uKbT-Gui0EUqGDIrVCipu1rJmJ2wuk1RthquFmWTb2VQBd3-smZL40VMkJKedz2ccg8sYs2zpjKGNEu9z6_Z8fuYsWIeo7MpaOCSUDkh0fD1vHdN19SlG53yLbzf1nmvwug7ZtgRkteUdQ6eKd-Myz7An3ttGmpPccid48ggkEE-9zvxqIl2ZSxDjOsN89dTuK4SB3xP1Oip8uuphbHJ5ZpNZZfBGDpWCsz37F2kvTq06JwGgRZsLOUHnKPSYpTIw0ZhVaVVzxrQ5Ou_fzwXzW3eilU8whveKIpett5YcVh4ghczJs6tJcb1jK4slRrOuwM0IniqmnazrUDJb9ydrCCQFT7ZSnfmpsuaB6iobFU0n4KoZLw7yD8SdMvaOXaP-RgA3xioQCcLiqEGaO0WNiOFuUOd2RRryAbBIc5GgPkScVZPrI3ynKTINaaqoOENK3tkzVIJMlHRPNMqEX4lcHouQbSaetJrewr_GA3lixZvq6hUXv8snqk_6q0XsOwFuZI0En8u6RAC1szX6QgdGK57Ha74qP1mF6G-7Z1ERkHAVpfv9Lpg6BYia0nt3g6ieTxRPgZwFT2Zxjic0xMZ0TZnWE-dRQDRxje6UqfXIlVLD3AASJBg2kKPwR5G7AxDNPL3Tq3Lm50H2qhvdqXYv13clv_2Y2SViA0E2RisofbEAhIdT8zYqurLyiwyTDkDqBbSad2rImJvm04Lnct7DzW8cKh3L3DHKol6KdbRsKk0pdb50EaqKLPDsqy5QCwf8KJAhZRI6v2yaBEcv9EXbHew957DEDtfr52qpfVptyhfNd4jh5R5zXd6bv1hjTYGLiB3QGpuvFMra8fKglek4sDhlwzYTUQoANh85Tuy8QMkp2fMMXTOCaS_R70KPkyqeEpwdvrXTtKQolm00]--></g></svg>