<?xml version="1.0" encoding="us-ascii" standalone="no"?><svg xmlns="http://www.w3.org/2000/svg" xmlns:xlink="http://www.w3.org/1999/xlink" contentStyleType="text/css" height="598px" preserveAspectRatio="none" style="width:617px;height:598px;background:#FFFFFF;" version="1.1" viewBox="0 0 617 598" width="617px" zoomAndPan="magnify"><defs/><g><text fill="#000000" font-family="sans-serif" font-size="14" font-weight="bold" lengthAdjust="spacing" textLength="168" x="226.25" y="27.9951">UC01 - Realizar Login</text><rect fill="none" height="190.6016" style="stroke:#000000;stroke-width:1.5;" width="538" x="10" y="310.3906"/><line style="stroke:#181818;stroke-width:0.5;stroke-dasharray:5.0,5.0;" x1="49" x2="49" y1="118.5938" y2="517.9922"/><line style="stroke:#181818;stroke-width:0.5;stroke-dasharray:5.0,5.0;" x1="234" x2="234" y1="118.5938" y2="517.9922"/><line style="stroke:#181818;stroke-width:0.5;stroke-dasharray:5.0,5.0;" x1="368" x2="368" y1="118.5938" y2="517.9922"/><line style="stroke:#181818;stroke-width:0.5;stroke-dasharray:5.0,5.0;" x1="555.5" x2="555.5" y1="118.5938" y2="517.9922"/><text fill="#000000" font-family="sans-serif" font-size="14" lengthAdjust="spacing" textLength="52" x="20" y="115.292">Usu&#225;rio</text><ellipse cx="49" cy="50.7969" fill="#E2E2F0" rx="8" ry="8" style="stroke:#181818;stroke-width:0.5;"/><path d="M49,58.7969 L49,85.7969 M36,66.7969 L62,66.7969 M49,85.7969 L36,100.7969 M49,85.7969 L62,100.7969 " fill="none" style="stroke:#181818;stroke-width:0.5;"/><text fill="#000000" font-family="sans-serif" font-size="14" lengthAdjust="spacing" textLength="52" x="20" y="529.9873">Usu&#225;rio</text><ellipse cx="49" cy="541.7891" fill="#E2E2F0" rx="8" ry="8" style="stroke:#181818;stroke-width:0.5;"/><path d="M49,549.7891 L49,576.7891 M36,557.7891 L62,557.7891 M49,576.7891 L36,591.7891 M49,576.7891 L62,591.7891 " fill="none" style="stroke:#181818;stroke-width:0.5;"/><text fill="#000000" font-family="sans-serif" font-size="14" lengthAdjust="spacing" textLength="92" x="185" y="115.292">Tela de Login</text><path d="M213.5,74.2969 L213.5,98.2969 M213.5,86.2969 L230.5,86.2969 " fill="none" style="stroke:#181818;stroke-width:0.5;"/><ellipse cx="242.5" cy="86.2969" fill="#E2E2F0" rx="12" ry="12" style="stroke:#181818;stroke-width:0.5;"/><text fill="#000000" font-family="sans-serif" font-size="14" lengthAdjust="spacing" textLength="92" x="185" y="529.9873">Tela de Login</text><path d="M213.5,537.2891 L213.5,561.2891 M213.5,549.2891 L230.5,549.2891 " fill="none" style="stroke:#181818;stroke-width:0.5;"/><ellipse cx="242.5" cy="549.2891" fill="#E2E2F0" rx="12" ry="12" style="stroke:#181818;stroke-width:0.5;"/><text fill="#000000" font-family="sans-serif" font-size="14" lengthAdjust="spacing" textLength="88" x="321" y="115.292">Sistema SGA</text><ellipse cx="368" cy="86.2969" fill="#E2E2F0" rx="12" ry="12" style="stroke:#181818;stroke-width:0.5;"/><polygon fill="#181818" points="364,74.2969,370,69.2969,368,74.2969,370,79.2969,364,74.2969" style="stroke:#181818;stroke-width:1.0;"/><text fill="#000000" font-family="sans-serif" font-size="14" lengthAdjust="spacing" textLength="88" x="321" y="529.9873">Sistema SGA</text><ellipse cx="368" cy="549.2891" fill="#E2E2F0" rx="12" ry="12" style="stroke:#181818;stroke-width:0.5;"/><polygon fill="#181818" points="364,537.2891,370,532.2891,368,537.2891,370,542.2891,364,537.2891" style="stroke:#181818;stroke-width:1.0;"/><text fill="#000000" font-family="sans-serif" font-size="14" lengthAdjust="spacing" textLength="115" x="495.5" y="115.292">Banco de Dados</text><path d="M538,66.2969 C538,56.2969 556,56.2969 556,56.2969 C556,56.2969 574,56.2969 574,66.2969 L574,92.2969 C574,102.2969 556,102.2969 556,102.2969 C556,102.2969 538,102.2969 538,92.2969 L538,66.2969 " fill="#E2E2F0" style="stroke:#181818;stroke-width:1.5;"/><path d="M538,66.2969 C538,76.2969 556,76.2969 556,76.2969 C556,76.2969 574,76.2969 574,66.2969 " fill="none" style="stroke:#181818;stroke-width:1.5;"/><text fill="#000000" font-family="sans-serif" font-size="14" lengthAdjust="spacing" textLength="115" x="495.5" y="529.9873">Banco de Dados</text><path d="M538,543.2891 C538,533.2891 556,533.2891 556,533.2891 C556,533.2891 574,533.2891 574,543.2891 L574,569.2891 C574,579.2891 556,579.2891 556,579.2891 C556,579.2891 538,579.2891 538,569.2891 L538,543.2891 " fill="#E2E2F0" style="stroke:#181818;stroke-width:1.5;"/><path d="M538,543.2891 C538,553.2891 556,553.2891 556,553.2891 C556,553.2891 574,553.2891 574,543.2891 " fill="none" style="stroke:#181818;stroke-width:1.5;"/><polygon fill="#181818" points="222,145.7266,232,149.7266,222,153.7266,226,149.7266" style="stroke:#181818;stroke-width:1.0;"/><line style="stroke:#181818;stroke-width:1.0;" x1="49" x2="228" y1="149.7266" y2="149.7266"/><text fill="#000000" font-family="sans-serif" font-size="13" lengthAdjust="spacing" textLength="128" x="56" y="144.6606">Acessa tela de login</text><polygon fill="#181818" points="60,174.8594,50,178.8594,60,182.8594,56,178.8594" style="stroke:#181818;stroke-width:1.0;"/><line style="stroke:#181818;stroke-width:1.0;" x1="54" x2="233" y1="178.8594" y2="178.8594"/><text fill="#000000" font-family="sans-serif" font-size="13" lengthAdjust="spacing" textLength="152" x="66" y="173.7935">Solicita usu&#225;rio e senha</text><polygon fill="#181818" points="222,203.9922,232,207.9922,222,211.9922,226,207.9922" style="stroke:#181818;stroke-width:1.0;"/><line style="stroke:#181818;stroke-width:1.0;" x1="49" x2="228" y1="207.9922" y2="207.9922"/><text fill="#000000" font-family="sans-serif" font-size="13" lengthAdjust="spacing" textLength="125" x="56" y="202.9263">Informa credenciais</text><polygon fill="#181818" points="356,233.125,366,237.125,356,241.125,360,237.125" style="stroke:#181818;stroke-width:1.0;"/><line style="stroke:#181818;stroke-width:1.0;" x1="234" x2="362" y1="237.125" y2="237.125"/><text fill="#000000" font-family="sans-serif" font-size="13" lengthAdjust="spacing" textLength="110" x="241" y="232.0591">Envia credenciais</text><polygon fill="#181818" points="544,262.2578,554,266.2578,544,270.2578,548,266.2578" style="stroke:#181818;stroke-width:1.0;"/><line style="stroke:#181818;stroke-width:1.0;" x1="368" x2="550" y1="266.2578" y2="266.2578"/><text fill="#000000" font-family="sans-serif" font-size="13" lengthAdjust="spacing" textLength="107" x="375" y="261.1919">Consulta usu&#225;rio</text><polygon fill="#181818" points="379,291.3906,369,295.3906,379,299.3906,375,295.3906" style="stroke:#181818;stroke-width:1.0;"/><line style="stroke:#181818;stroke-width:1.0;stroke-dasharray:2.0,2.0;" x1="373" x2="555" y1="295.3906" y2="295.3906"/><text fill="#000000" font-family="sans-serif" font-size="13" lengthAdjust="spacing" textLength="164" x="385" y="290.3247">Retorna dados do usu&#225;rio</text><path d="M10,310.3906 L74,310.3906 L74,317.5234 L64,327.5234 L10,327.5234 L10,310.3906 " fill="#EEEEEE" style="stroke:#000000;stroke-width:1.5;"/><rect fill="none" height="190.6016" style="stroke:#000000;stroke-width:1.5;" width="538" x="10" y="310.3906"/><text fill="#000000" font-family="sans-serif" font-size="13" font-weight="bold" lengthAdjust="spacing" textLength="19" x="25" y="323.4575">alt</text><text fill="#000000" font-family="sans-serif" font-size="11" font-weight="bold" lengthAdjust="spacing" textLength="136" x="89" y="322.6011">[Credenciais v&#225;lidas]</text><line style="stroke:#181818;stroke-width:1.0;" x1="368" x2="410" y1="348.6563" y2="348.6563"/><line style="stroke:#181818;stroke-width:1.0;" x1="410" x2="410" y1="348.6563" y2="361.6563"/><line style="stroke:#181818;stroke-width:1.0;" x1="369" x2="410" y1="361.6563" y2="361.6563"/><polygon fill="#181818" points="379,357.6563,369,361.6563,379,365.6563,375,361.6563" style="stroke:#181818;stroke-width:1.0;"/><text fill="#000000" font-family="sans-serif" font-size="13" lengthAdjust="spacing" textLength="161" x="375" y="343.5903">Identifica perfil de acesso</text><polygon fill="#181818" points="245,386.7891,235,390.7891,245,394.7891,241,390.7891" style="stroke:#181818;stroke-width:1.0;"/><line style="stroke:#181818;stroke-width:1.0;stroke-dasharray:2.0,2.0;" x1="239" x2="367" y1="390.7891" y2="390.7891"/><text fill="#000000" font-family="sans-serif" font-size="13" lengthAdjust="spacing" textLength="102" x="251" y="385.7231">Autoriza acesso</text><polygon fill="#181818" points="60,415.9219,50,419.9219,60,423.9219,56,419.9219" style="stroke:#181818;stroke-width:1.0;"/><line style="stroke:#181818;stroke-width:1.0;stroke-dasharray:2.0,2.0;" x1="54" x2="233" y1="419.9219" y2="419.9219"/><text fill="#000000" font-family="sans-serif" font-size="13" lengthAdjust="spacing" textLength="122" x="66" y="414.856">Exibe &#225;rea do perfil</text><line style="stroke:#000000;stroke-width:1.0;stroke-dasharray:2.0,2.0;" x1="10" x2="548" y1="428.9219" y2="428.9219"/><text fill="#000000" font-family="sans-serif" font-size="11" font-weight="bold" lengthAdjust="spacing" textLength="148" x="15" y="439.1323">[Credenciais inv&#225;lidas]</text><polygon fill="#181818" points="245,459.8594,235,463.8594,245,467.8594,241,463.8594" style="stroke:#181818;stroke-width:1.0;"/><line style="stroke:#181818;stroke-width:1.0;stroke-dasharray:2.0,2.0;" x1="239" x2="367" y1="463.8594" y2="463.8594"/><text fill="#000000" font-family="sans-serif" font-size="13" lengthAdjust="spacing" textLength="98" x="251" y="458.7935">Acesso negado</text><polygon fill="#181818" points="60,488.9922,50,492.9922,60,496.9922,56,492.9922" style="stroke:#181818;stroke-width:1.0;"/><line style="stroke:#181818;stroke-width:1.0;stroke-dasharray:2.0,2.0;" x1="54" x2="233" y1="492.9922" y2="492.9922"/><text fill="#000000" font-family="sans-serif" font-size="13" lengthAdjust="spacing" textLength="161" x="66" y="487.9263">Exibe mensagem de erro</text><!--SRC=[VP51RW8n34NtEOKrUwHsow8IfQX2OWNb09x4K4iXhf8CQdiRpiB5wcIWp5IeMSNEo_UtdJbxWktyuH4ci2Rq_8qHLhBdO0pQB16QRUhEfyZI02ReKeTwDwrqmM7yWkQDF8AZ_bDbicQCbP2ZU6Wsd38T43Qli_gQ-jWupDXY8cYUCLWf4Y_e95MeTSPSIi7agIh256QMKi8-KjnNcpLIvefFOIEUBMSigUeS21A5TxodkGmxYMhFHd8KB2EdNycBLQKMuSXZnbmVbMkT8dC9gVE3gaRJav7AcdIWGRsNFi793JNeCynlyd0ydpmxJ0Rq34hTn9RAPjwnHVYWk6DVHe9bGZB-D9XVf_LrmqEixtKqlyKdjmHgZB2OxDKDUTtLq2A7-oR_x4iWq5uR_h_QWKB2FHrA4nIZ60hE_000]--></g></svg>